<?xml version="1.0" encoding="utf-8"?>
<!-- Generator: Adobe Illustrator 22.0.1, SVG Export Plug-In . SVG Version: 6.00 Build 0)  -->
<svg version="1.1" id="Layer_1" xmlns="http://www.w3.org/2000/svg" xmlns:xlink="http://www.w3.org/1999/xlink" x="0px" y="0px"
	 viewBox="0 0 1024 1024" style="enable-background:new 0 0 1024 1024;" xml:space="preserve">
<style type="text/css">
	.st0{fill:url(#SVGID_1_);}
	.st1{fill:#FFFFFF;}
</style>
<linearGradient id="SVGID_1_" gradientUnits="userSpaceOnUse" x1="-40.5647" y1="48.3431" x2="1064.5647" y2="975.6569">
	<stop  offset="0" style="stop-color:#00DAAB"/>
	<stop  offset="0.2844" style="stop-color:#00D6AF"/>
	<stop  offset="0.579" style="stop-color:#00CABC"/>
	<stop  offset="0.8773" style="stop-color:#00B7D0"/>
	<stop  offset="1" style="stop-color:#00ADDB"/>
</linearGradient>
<rect x="0" y="0" class="st0" width="1024" height="1024"/>
<path class="st1" d="M446.4,855.7c20.4,1.6,44.4,2.5,71.2,2.5c30.3,0,60.1-4.1,88.8-12.1l8.2-2.5l0.5-0.2
	c109.6-36.8,177.7-133.3,177.7-251.7c0-156.9-113.2-266.4-275.2-266.4c-35.1,0-100.5,0-100.5,69.4v229.7
	c0,59.5,47,106.1,106.9,106.1c49.3,0,91.8-33.9,103.6-80.6c9.6-2.1,18.6-6.2,26.7-12c12-8.7,14.8-25.5,6.1-37.5
	c-4.2-5.9-10.4-9.7-17.5-10.9c-7.1-1.2-14.2,0.5-20.1,4.7c-4.2,3-9.2,4.2-14.3,3.4c-5-0.8-9.5-3.6-12.5-7.7
	c-4.2-5.8-10.4-9.6-17.4-10.8c-7.1-1.2-14.2,0.5-20.1,4.7c-5.8,4.2-9.6,10.4-10.8,17.4c-1.2,7.1,0.5,14.3,4.7,20.1
	c5.7,8,13,14.6,21.2,19.7c-7.2,20.7-26.9,35.2-49.6,35.2c-29,0-52.1-22.6-52.6-51V394.7c0-8,1.4-8.8,3.1-9.8
	c6.2-3.6,20.8-5.4,43.1-5.4c130.1,0,220.9,87.2,220.9,212.2c0,94.3-51.8,168.7-138.7,199.2c-1.5,0.5-2.7,0.9-3.5,1.1l-3.5,0.9
	c-23.2,7.2-48.5,10.9-75.3,10.9c-25.6,0-48.4-0.8-67.6-2.3c-3.1-0.2-6.3-0.6-7.3-0.7l-0.4,0c-74.9-6.6-104.1-22.7-104.1-57.5V259.9
	c0-22,17.5-39.9,39.1-39.9c21.6,0,39.9,18.3,39.9,39.9v23.9c0,15.2,11.9,27.1,27.1,27.1c15.2,0,27.1-11.9,27.1-27.1v-23.9
	c0-51.9-42.2-94.1-94.1-94.1c-51.5,0-93.3,42.2-93.3,94.1v483.4c0,86.6,82.4,105.1,153.9,111.6C437.8,854.9,444.5,855.6,446.4,855.7
	z"/>
</svg>
